<?xml version="1.0" encoding="UTF-8"?>
<svg id="Layer_1" xmlns="http://www.w3.org/2000/svg" version="1.1" viewBox="0 0 48 48">
  <!-- Generator: Adobe Illustrator 30.0.0, SVG Export Plug-In . SVG Version: 2.1.1 Build 123)  -->
  <defs>
    <style>
      .st0 {
        fill: none;
      }

      .st1 {
        fill: #28536b;
      }
    </style>
  </defs>
  <line class="st0" x1="15.67" y1="1.25" x2="15.65" y2="1.28"/>
  <path class="st1" d="M34.59,45.13c-4.06-.12-8.99.16-11.74-2.76-1.8,1.38-6.65,3.24-11.59,2.69.42-1.13.85-2.26,1.27-3.39,2.78.33,5.6.47,8.27-1.86-2.43-4.44-2.78-10.94-.29-14.82,2.49,8.23.72,18.03,12.9,16.68.49,1.36,1.01,2.52,1.18,3.47Z"/>
  <path class="st1" d="M46.81,45.04L32,1.43h-2.86l-6.75,20.6c.87,2.58,1.5,4.65,1.92,6.11.11.38.49,1.53,1.24,3.85.64,1.95.97,2.94,1.2,2.89.1-.02.16-.22.29-1.47.15-1.46.23-2.18.23-2.86,0-.77-.04-2.06-.35-3.6-.15-.74-.3-1.27-.55-2.11-.31-1.06-.62-1.94-.85-2.55,1.71-5.19,3.42-10.38,5.14-15.57l9.21,27.42-8.4.03-1.28,3.55,10.97-.03,2.39,7.36h3.26Z"/>
  <polygon class="st1" points="15.7 1.43 1.19 45.11 4.42 45.11 6.96 37.65 16.53 37.65 15.36 34.23 8.09 34.18 17.15 6.84 21.25 19.89 22.93 14.88 18.45 1.43 15.7 1.43"/>
  <path class="st1" d="M33.1,46.75"/>
</svg>