<?xml version="1.0" encoding="UTF-8"?>
<svg id="Layer_1" data-name="Layer 1" xmlns="http://www.w3.org/2000/svg" viewBox="0 0 178.85 38.53">
  <g style="isolation: isolate;">
    <g style="isolation: isolate;">
      <g style="isolation: isolate;">
        <g style="isolation: isolate;">
          <g style="isolation: isolate;">
            <g style="isolation: isolate;">
              <g style="isolation: isolate;">
                <path d="M8.09,22.16l-2.68,7.51H1.97L10.73,5.78h4.02l8.81,23.89h-3.56l-2.76-7.51h-9.15ZM16.55,19.75l-2.53-6.88c-.57-1.56-.96-2.98-1.34-4.36h-.08c-.38,1.42-.8,2.87-1.3,4.32l-2.53,6.91h7.77Z" style="fill: #29546c;"/>
              </g>
            </g>
          </g>
        </g>
      </g>
    </g>
  </g>
  <g style="isolation: isolate;">
    <g style="isolation: isolate;">
      <g style="isolation: isolate;">
        <g style="isolation: isolate;">
          <g style="isolation: isolate;">
            <g style="isolation: isolate;">
              <g style="isolation: isolate;">
                <path d="M38.1,22.16l-2.68,7.51h-3.45l8.77-23.89h4.02l8.81,23.89h-3.56l-2.76-7.51h-9.15ZM46.56,19.75l-2.53-6.88c-.57-1.56-.96-2.98-1.34-4.36h-.08c-.38,1.42-.8,2.87-1.3,4.32l-2.53,6.91h7.77Z" style="fill: #29546c;"/>
              </g>
            </g>
          </g>
        </g>
      </g>
    </g>
  </g>
  <g style="isolation: isolate;">
    <g style="isolation: isolate;">
      <g style="isolation: isolate;">
        <path d="M60.8,5.93v9.88h8.9V5.93h2.4v23.62h-2.4v-11.08h-8.9v11.08h-2.38V5.93h2.38Z" style="fill: #29546c;"/>
        <path d="M88.1,20.93c0,6.27-3.39,9.01-6.58,9.01-3.57,0-6.34-3.37-6.34-8.73,0-5.68,2.89-9.01,6.55-9.01s6.36,3.54,6.36,8.73h0ZM77.61,21.1c0,3.72,1.66,6.52,4.01,6.52s4.01-2.77,4.01-6.59c0-2.87-1.12-6.52-3.96-6.52s-4.07,3.36-4.07,6.59h0Z" style="fill: #29546c;"/>
        <path d="M90.8,26.4c.71.6,1.97,1.23,3.16,1.23,1.74,0,2.57-1.12,2.57-2.52,0-1.47-.68-2.28-2.45-3.12-2.38-1.09-3.5-2.77-3.5-4.8,0-2.73,1.72-4.98,4.56-4.98,1.33,0,2.51.49,3.25,1.05l-.6,2.24c-.52-.42-1.47-.98-2.71-.98-1.42,0-2.21,1.05-2.21,2.31,0,1.4.79,2.03,2.51,2.87,2.3,1.12,3.47,2.59,3.47,5.12,0,2.98-1.8,5.08-4.95,5.08-1.45,0-2.78-.46-3.71-1.16l.6-2.35h0Z" style="fill: #29546c;"/>
        <path d="M101.94,18.13c0-2.17-.06-3.93-.11-5.54h2.15l.11,2.91h.06c.98-2.07,2.54-3.29,4.69-3.29,3.19,0,5.6,3.47,5.6,8.62,0,6.1-2.89,9.11-6.01,9.11-1.74,0-3.28-.98-4.07-2.66h-.06v9.22h-2.38v-18.37h0ZM104.32,22.65c0,.46.06.88.11,1.26.44,2.14,1.88,3.61,3.6,3.61,2.54,0,4.01-2.66,4.01-6.55,0-3.4-1.39-6.31-3.93-6.31-1.64,0-3.16,1.51-3.63,3.82-.08.39-.17.84-.17,1.26v2.91h0Z" style="fill: #29546c;"/>
        <path d="M120.15,7.82c.03,1.05-.57,1.89-1.53,1.89-.85,0-1.45-.84-1.45-1.89s.62-1.93,1.5-1.93,1.47.84,1.47,1.93h0ZM117.47,29.55V12.59h2.4v16.96h-2.4Z" style="fill: #29546c;"/>
        <path d="M126.75,7.72v4.87h3.44v2.35h-3.44v9.15c0,2.1.47,3.29,1.8,3.29.63,0,1.09-.11,1.39-.21l.11,2.31c-.47.25-1.2.42-2.13.42-1.12,0-2.03-.46-2.6-1.3-.68-.91-.92-2.42-.92-4.42v-9.25h-2.04v-2.35h2.04v-4.07l2.35-.81v.02Z" style="fill: #29546c;"/>
        <path d="M140.22,29.55l-.19-2.14h-.08c-.74,1.33-2.16,2.52-4.04,2.52-2.68,0-4.04-2.42-4.04-4.87,0-4.1,2.84-6.34,7.94-6.31v-.35c0-1.4-.3-3.93-3-3.93-1.23,0-2.51.49-3.44,1.26l-.55-2.03c1.09-.91,2.68-1.51,4.34-1.51,4.04,0,5.02,3.54,5.02,6.94v6.34c0,1.47.06,2.91.21,4.07h-2.19ZM139.86,20.89c-2.62-.07-5.6.53-5.6,3.82,0,2,1.04,2.94,2.27,2.94,1.72,0,2.81-1.4,3.19-2.84.08-.32.14-.67.14-.98v-2.94Z" style="fill: #29546c;"/>
        <path d="M146.06,4.67h2.4v24.89h-2.4V4.67Z" style="fill: #29546c;"/>
        <path d="M155.17,7.82c.03,1.05-.57,1.89-1.53,1.89-.85,0-1.45-.84-1.45-1.89s.62-1.93,1.5-1.93,1.47.84,1.47,1.93h0ZM152.5,29.55V12.59h2.4v16.96h-2.4Z" style="fill: #29546c;"/>
        <path d="M161.78,7.72v4.87h3.44v2.35h-3.44v9.15c0,2.1.47,3.29,1.8,3.29.63,0,1.09-.11,1.39-.21l.11,2.31c-.47.25-1.2.42-2.13.42-1.12,0-2.03-.46-2.6-1.3-.68-.91-.92-2.42-.92-4.42v-9.25h-2.04v-2.35h2.04v-4.07l2.35-.81v.02Z" style="fill: #29546c;"/>
        <path d="M169.05,12.59l2.89,10.02c.3,1.12.62,2.45.85,3.47h.06c.24-1.02.52-2.31.85-3.54l2.62-9.95h2.54l-3.6,12.09c-1.72,5.82-2.89,8.8-4.54,10.62-1.18,1.33-2.35,1.86-2.95,2l-.6-2.59c.6-.25,1.39-.74,2.1-1.51.65-.67,1.47-1.86,2.03-3.44.11-.32.19-.56.19-.74s-.06-.42-.17-.81l-4.89-15.63h2.62Z" style="fill: #29546c;"/>
      </g>
    </g>
  </g>
  <g style="isolation: isolate;">
    <g style="isolation: isolate;">
      <g style="isolation: isolate;">
        <g style="isolation: isolate;">
          <g style="isolation: isolate;">
            <path d="M22.57,20.78c0-2.14,1.03-4.03,2.52-4.59.21-.1.29-.15.29-.26s-.06-.15-.23-.28c-.89-.54-1.36-1.58-1.36-2.88,0-2.3,1.48-3.93,3.53-3.93,1.49,0,2.87,1.25,2.87,2.63,0,.41-.17.69-.45.69-.23,0-.39-.13-.56-.46-.45-.84-1.01-1.23-1.73-1.23-1.15,0-1.98,1.05-1.98,2.58,0,1.35.82,2.4,1.81,2.4.33,0,.49.23.49.82,0,.54-.17.82-.5.82-1.77,0-3.01,1.51-3.01,3.73,0,2.4,1.49,4.01,3.69,4.01s3.59-1.53,3.59-3.45c0-1.2-.78-2.12-1.53-2.12-.35,0-.72.56-.8,1.28-.06.61-.19.89-.47.89-.35,0-.56-.51-.56-1.15,0-1.22.56-2.07,2.43-3.5,1.75-1.28,2.31-2.02,2.31-2.83,0-.51-.25-.92-.6-.92-.37,0-.66.33-.74.84-.1.49-.23.74-.52.74s-.47-.36-.47-.89c0-1.23.83-2.17,1.96-2.17s1.98,1,1.98,2.48c0,1.28-.8,2.55-2.78,3.93-.37.26-.45.33-.45.43,0,.15,1.67.46,1.67,3.11s-2.17,4.95-5.12,4.95-5.28-2.37-5.28-5.67Z" style="fill: #29546c;"/>
          </g>
        </g>
      </g>
    </g>
  </g>
</svg>