<?xml version="1.0" standalone="no"?>
<!DOCTYPE svg PUBLIC "-//W3C//DTD SVG 20010904//EN"
 "http://www.w3.org/TR/2001/REC-SVG-20010904/DTD/svg10.dtd">
<svg version="1.0" xmlns="http://www.w3.org/2000/svg"
 width="1088.000000pt" height="960.000000pt" viewBox="0 0 1088.000000 960.000000"
 preserveAspectRatio="xMidYMid meet">

<g transform="translate(0.000000,960.000000) scale(0.100000,-0.100000)"
fill="#000000" stroke="none">
<path d="M4881 6228 c-5 -13 -70 -171 -144 -353 -74 -181 -164 -402 -200 -490
-36 -88 -102 -248 -147 -355 -113 -272 -255 -614 -367 -885 -52 -126 -131
-313 -175 -415 -44 -102 -82 -191 -85 -197 -4 -10 24 -13 120 -13 88 0 127 4
134 13 6 6 45 95 87 197 43 102 85 201 94 220 l17 35 373 3 c206 1 372 6 370
10 -2 4 -23 53 -48 110 l-45 102 -282 2 -282 3 35 80 c20 44 66 154 104 245
37 91 112 269 165 395 135 319 236 561 315 756 88 217 85 212 102 169 8 -19
79 -198 158 -397 80 -199 148 -359 151 -355 9 10 119 286 119 298 0 20 -320
795 -343 832 -6 8 -40 12 -113 12 -99 0 -105 -1 -113 -22z"/>
<path d="M5825 5983 c-59 -147 -141 -349 -182 -448 -41 -99 -110 -269 -154
-378 l-79 -197 74 -193 c40 -105 90 -239 111 -297 56 -156 138 -311 156 -293
22 22 41 181 37 297 -4 111 -8 132 -50 251 -25 72 -53 151 -63 176 l-18 46 66
154 c83 194 278 668 302 734 23 62 32 74 41 49 16 -45 231 -564 409 -989 107
-253 214 -509 239 -570 l45 -110 -320 -3 -319 -2 -50 -100 c-27 -55 -50 -104
-50 -110 0 -7 144 -10 426 -10 l426 0 11 -32 c7 -17 48 -122 92 -232 l80 -201
128 -3 c70 -1 127 1 127 5 0 4 -40 100 -89 213 -49 113 -112 259 -140 325 -60
138 -419 989 -671 1590 -95 226 -190 451 -211 500 l-38 90 -114 3 -114 3 -108
-268z"/>
<path d="M5296 4720 c-68 -152 -91 -267 -84 -422 7 -134 30 -218 93 -345 60
-119 63 -108 -46 -157 -94 -41 -191 -56 -371 -56 l-164 0 -44 -102 c-25 -56
-46 -105 -48 -110 -2 -4 99 -8 225 -8 321 0 437 27 588 134 l62 45 44 -30 c78
-53 177 -99 262 -121 70 -18 120 -21 340 -25 211 -4 257 -3 256 9 0 7 -19 56
-43 108 l-42 95 -185 6 c-277 8 -372 42 -510 179 -130 128 -189 285 -189 499
0 97 -2 104 -52 231 -28 71 -55 130 -58 130 -4 0 -19 -27 -34 -60z"/>
</g>
</svg>
