<svg xmlns="http://www.w3.org/2000/svg" xmlns:xlink="http://www.w3.org/1999/xlink" width="160" zoomAndPan="magnify" viewBox="0 0 120 30.000001" height="40" preserveAspectRatio="xMidYMid meet" version="1.0"><defs><g/><clipPath id="5eefbcac23"><path d="M 3 2 L 118.0625 2 L 118.0625 25 L 3 25 Z M 3 2 " clip-rule="nonzero"/></clipPath><clipPath id="37fc88c20b"><path d="M 0.328125 7 L 11 7 L 11 19 L 0.328125 19 Z M 0.328125 7 " clip-rule="nonzero"/></clipPath><clipPath id="de6301615b"><rect x="0" width="116" y="0" height="23"/></clipPath></defs><g clip-path="url(#5eefbcac23)"><g transform="matrix(1, 0, 0, 1, 3, 2)"><g clip-path="url(#de6301615b)"><g clip-path="url(#37fc88c20b)"><g fill="#000000" fill-opacity="1"><g transform="translate(0.413457, 18.112115)"><g><path d="M 3.90625 -4.078125 L 6.65625 -4.078125 L 5.3125 -8.34375 L 5.28125 -8.34375 Z M 2.5625 0 L 0.1875 0 L 4.015625 -10.765625 L 6.625 -10.765625 L 10.421875 0 L 7.96875 0 L 7.28125 -2.21875 L 3.296875 -2.21875 Z M 2.5625 0 "/></g></g></g></g><g fill="#000000" fill-opacity="1"><g transform="translate(11.011681, 18.112115)"><g><path d="M 5.671875 -8.296875 C 5.671875 -8.597656 5.582031 -8.816406 5.40625 -8.953125 C 5.238281 -9.097656 5.023438 -9.171875 4.765625 -9.171875 C 4.503906 -9.171875 4.289062 -9.09375 4.125 -8.9375 C 3.96875 -8.78125 3.890625 -8.570312 3.890625 -8.3125 C 3.890625 -7.945312 4.148438 -7.492188 4.671875 -6.953125 C 5.335938 -7.359375 5.671875 -7.804688 5.671875 -8.296875 Z M 4.03125 -4.703125 C 3.5625 -4.390625 3.226562 -4.109375 3.03125 -3.859375 C 2.84375 -3.617188 2.75 -3.300781 2.75 -2.90625 C 2.75 -2.550781 2.890625 -2.222656 3.171875 -1.921875 C 3.453125 -1.628906 3.84375 -1.484375 4.34375 -1.484375 C 4.894531 -1.484375 5.453125 -1.734375 6.015625 -2.234375 Z M 10.359375 0 L 7.828125 0 L 7.09375 -0.921875 C 6.351562 -0.117188 5.328125 0.28125 4.015625 0.28125 C 3.035156 0.28125 2.226562 -0.015625 1.59375 -0.609375 C 0.96875 -1.210938 0.65625 -1.9375 0.65625 -2.78125 C 0.65625 -4.070312 1.34375 -5.113281 2.71875 -5.90625 L 2.953125 -6.046875 C 2.304688 -6.785156 1.984375 -7.535156 1.984375 -8.296875 C 1.984375 -9.015625 2.242188 -9.601562 2.765625 -10.0625 C 3.296875 -10.53125 3.953125 -10.765625 4.734375 -10.765625 C 5.515625 -10.765625 6.164062 -10.539062 6.6875 -10.09375 C 7.21875 -9.65625 7.484375 -9.050781 7.484375 -8.28125 C 7.484375 -7.28125 6.890625 -6.425781 5.703125 -5.71875 L 7.234375 -3.828125 C 7.554688 -4.367188 7.738281 -4.957031 7.78125 -5.59375 L 9.640625 -5.59375 C 9.535156 -4.289062 9.125 -3.210938 8.40625 -2.359375 Z M 10.359375 0 "/></g></g></g><g fill="#000000" fill-opacity="1"><g transform="translate(21.705121, 18.112115)"><g><path d="M 3.90625 -4.078125 L 6.65625 -4.078125 L 5.3125 -8.34375 L 5.28125 -8.34375 Z M 2.5625 0 L 0.1875 0 L 4.015625 -10.765625 L 6.625 -10.765625 L 10.421875 0 L 7.96875 0 L 7.28125 -2.21875 L 3.296875 -2.21875 Z M 2.5625 0 "/></g></g></g><g fill="#000000" fill-opacity="1"><g transform="translate(32.303345, 18.112115)"><g/></g></g><g fill="#000000" fill-opacity="1"><g transform="translate(36.331695, 18.112115)"><g><path d="M 9.796875 -10.765625 L 9.796875 0 L 7.546875 0 L 7.546875 -4.828125 L 3.34375 -4.828125 L 3.34375 0 L 1.09375 0 L 1.09375 -10.765625 L 3.34375 -10.765625 L 3.34375 -6.6875 L 7.546875 -6.6875 L 7.546875 -10.765625 Z M 9.796875 -10.765625 "/></g></g></g><g fill="#000000" fill-opacity="1"><g transform="translate(47.230215, 18.112115)"><g><path d="M 6.5 -3.984375 C 6.5 -4.753906 6.34375 -5.351562 6.03125 -5.78125 C 5.71875 -6.207031 5.242188 -6.421875 4.609375 -6.421875 C 4.015625 -6.421875 3.546875 -6.21875 3.203125 -5.8125 C 2.867188 -5.414062 2.703125 -4.804688 2.703125 -3.984375 C 2.703125 -3.191406 2.863281 -2.585938 3.1875 -2.171875 C 3.519531 -1.765625 3.992188 -1.5625 4.609375 -1.5625 C 5.234375 -1.5625 5.703125 -1.769531 6.015625 -2.1875 C 6.335938 -2.613281 6.5 -3.210938 6.5 -3.984375 Z M 8.671875 -3.984375 C 8.671875 -2.679688 8.296875 -1.65625 7.546875 -0.90625 C 6.796875 -0.15625 5.816406 0.21875 4.609375 0.21875 C 3.421875 0.21875 2.445312 -0.148438 1.6875 -0.890625 C 0.925781 -1.640625 0.546875 -2.671875 0.546875 -3.984375 C 0.546875 -5.316406 0.925781 -6.347656 1.6875 -7.078125 C 2.445312 -7.816406 3.421875 -8.1875 4.609375 -8.1875 C 5.828125 -8.1875 6.804688 -7.804688 7.546875 -7.046875 C 8.296875 -6.296875 8.671875 -5.273438 8.671875 -3.984375 Z M 8.671875 -3.984375 "/></g></g></g><g fill="#000000" fill-opacity="1"><g transform="translate(56.444151, 18.112115)"><g><path d="M 5.484375 -5.53125 C 5.441406 -5.882812 5.3125 -6.15625 5.09375 -6.34375 C 4.882812 -6.53125 4.546875 -6.625 4.078125 -6.625 C 3.640625 -6.625 3.316406 -6.550781 3.109375 -6.40625 C 2.910156 -6.269531 2.8125 -6.09375 2.8125 -5.875 C 2.8125 -5.664062 2.894531 -5.503906 3.0625 -5.390625 C 3.238281 -5.273438 3.910156 -5.082031 5.078125 -4.8125 C 6.265625 -4.53125 7.019531 -4.203125 7.34375 -3.828125 C 7.664062 -3.460938 7.828125 -3.007812 7.828125 -2.46875 C 7.828125 -1.582031 7.515625 -0.90625 6.890625 -0.4375 C 6.265625 0.03125 5.335938 0.265625 4.109375 0.265625 C 3.015625 0.265625 2.15625 0.0390625 1.53125 -0.40625 C 0.914062 -0.851562 0.5625 -1.554688 0.46875 -2.515625 L 2.625 -2.515625 C 2.625 -2.097656 2.753906 -1.789062 3.015625 -1.59375 C 3.285156 -1.394531 3.691406 -1.296875 4.234375 -1.296875 C 4.691406 -1.296875 5.039062 -1.363281 5.28125 -1.5 C 5.53125 -1.632812 5.65625 -1.816406 5.65625 -2.046875 C 5.65625 -2.285156 5.566406 -2.46875 5.390625 -2.59375 C 5.210938 -2.726562 4.609375 -2.90625 3.578125 -3.125 C 2.429688 -3.363281 1.671875 -3.679688 1.296875 -4.078125 C 0.921875 -4.472656 0.734375 -4.945312 0.734375 -5.5 C 0.734375 -6.289062 1.015625 -6.9375 1.578125 -7.4375 C 2.148438 -7.9375 2.992188 -8.1875 4.109375 -8.1875 C 5.191406 -8.1875 6.019531 -7.960938 6.59375 -7.515625 C 7.164062 -7.066406 7.484375 -6.40625 7.546875 -5.53125 Z M 5.484375 -5.53125 "/></g></g></g><g fill="#000000" fill-opacity="1"><g transform="translate(64.779175, 18.112115)"><g><path d="M 3.03125 -3.8125 C 3.03125 -3.101562 3.191406 -2.539062 3.515625 -2.125 C 3.835938 -1.71875 4.289062 -1.515625 4.875 -1.515625 C 5.414062 -1.515625 5.835938 -1.742188 6.140625 -2.203125 C 6.453125 -2.671875 6.609375 -3.25 6.609375 -3.9375 C 6.609375 -4.726562 6.445312 -5.332031 6.125 -5.75 C 5.8125 -6.164062 5.375 -6.375 4.8125 -6.375 C 4.21875 -6.375 3.769531 -6.15625 3.46875 -5.71875 C 3.175781 -5.28125 3.03125 -4.644531 3.03125 -3.8125 Z M 3.03125 -6.828125 L 3.0625 -6.828125 C 3.582031 -7.734375 4.378906 -8.1875 5.453125 -8.1875 C 6.410156 -8.1875 7.203125 -7.820312 7.828125 -7.09375 C 8.453125 -6.363281 8.765625 -5.359375 8.765625 -4.078125 C 8.765625 -2.828125 8.472656 -1.796875 7.890625 -0.984375 C 7.304688 -0.179688 6.476562 0.21875 5.40625 0.21875 C 4.351562 0.21875 3.601562 -0.191406 3.15625 -1.015625 L 3.125 -1.015625 L 3.125 3.109375 L 1.03125 3.109375 L 1.03125 -7.984375 L 3.03125 -7.984375 Z M 3.03125 -6.828125 "/></g></g></g><g fill="#000000" fill-opacity="1"><g transform="translate(74.095651, 18.112115)"><g><path d="M 3.125 -8.921875 L 1.03125 -8.921875 L 1.03125 -10.875 L 3.125 -10.875 Z M 3.125 -7.984375 L 3.125 0 L 1.03125 0 L 1.03125 -7.984375 Z M 3.125 -7.984375 "/></g></g></g><g fill="#000000" fill-opacity="1"><g transform="translate(78.248514, 18.112115)"><g><path d="M 3.375 -7.984375 L 4.671875 -7.984375 L 4.671875 -6.484375 L 3.375 -6.484375 L 3.375 -2 C 3.375 -1.789062 3.429688 -1.65625 3.546875 -1.59375 C 3.660156 -1.53125 3.835938 -1.5 4.078125 -1.5 C 4.316406 -1.5 4.515625 -1.507812 4.671875 -1.53125 L 4.671875 0.03125 C 4.367188 0.0820312 3.988281 0.109375 3.53125 0.109375 C 2.707031 0.109375 2.125 -0.015625 1.78125 -0.265625 C 1.4375 -0.523438 1.265625 -0.984375 1.265625 -1.640625 L 1.265625 -6.484375 L 0.1875 -6.484375 L 0.1875 -7.984375 L 1.265625 -7.984375 L 1.265625 -10.140625 L 3.375 -10.140625 Z M 3.375 -7.984375 "/></g></g></g><g fill="#000000" fill-opacity="1"><g transform="translate(83.287614, 18.112115)"><g><path d="M 5.609375 -3.875 C 5.347656 -3.6875 4.84375 -3.539062 4.09375 -3.4375 C 3.46875 -3.34375 3.054688 -3.195312 2.859375 -3 C 2.671875 -2.8125 2.578125 -2.5625 2.578125 -2.25 C 2.578125 -1.925781 2.675781 -1.6875 2.875 -1.53125 C 3.082031 -1.375 3.332031 -1.296875 3.625 -1.296875 C 4.15625 -1.296875 4.617188 -1.441406 5.015625 -1.734375 C 5.410156 -2.035156 5.609375 -2.410156 5.609375 -2.859375 Z M 7.65625 -1.5625 C 7.65625 -1.195312 7.6875 -0.910156 7.75 -0.703125 C 7.820312 -0.492188 7.941406 -0.363281 8.109375 -0.3125 L 8.109375 0 L 5.859375 0 C 5.765625 -0.269531 5.695312 -0.582031 5.65625 -0.9375 C 4.976562 -0.164062 4.09375 0.21875 3 0.21875 C 2.238281 0.21875 1.625 0.0078125 1.15625 -0.40625 C 0.695312 -0.832031 0.46875 -1.398438 0.46875 -2.109375 C 0.46875 -2.796875 0.671875 -3.359375 1.078125 -3.796875 C 1.484375 -4.242188 2.085938 -4.53125 2.890625 -4.65625 L 4.84375 -4.9375 C 5.113281 -4.976562 5.304688 -5.050781 5.421875 -5.15625 C 5.546875 -5.269531 5.609375 -5.410156 5.609375 -5.578125 C 5.609375 -5.890625 5.492188 -6.125 5.265625 -6.28125 C 5.035156 -6.4375 4.691406 -6.515625 4.234375 -6.515625 C 3.753906 -6.515625 3.398438 -6.425781 3.171875 -6.25 C 2.953125 -6.070312 2.816406 -5.785156 2.765625 -5.390625 L 0.734375 -5.390625 C 0.835938 -6.367188 1.164062 -7.078125 1.71875 -7.515625 C 2.28125 -7.960938 3.175781 -8.1875 4.40625 -8.1875 C 5.382812 -8.1875 6.171875 -7.988281 6.765625 -7.59375 C 7.359375 -7.195312 7.65625 -6.625 7.65625 -5.875 Z M 7.65625 -1.5625 "/></g></g></g><g fill="#000000" fill-opacity="1"><g transform="translate(91.857015, 18.112115)"><g><path d="M 3.125 0 L 1.03125 0 L 1.03125 -10.765625 L 3.125 -10.765625 Z M 3.125 0 "/></g></g></g><g fill="#000000" fill-opacity="1"><g transform="translate(96.009878, 18.112115)"><g><path d="M 3.125 -8.921875 L 1.03125 -8.921875 L 1.03125 -10.875 L 3.125 -10.875 Z M 3.125 -7.984375 L 3.125 0 L 1.03125 0 L 1.03125 -7.984375 Z M 3.125 -7.984375 "/></g></g></g><g fill="#000000" fill-opacity="1"><g transform="translate(100.162741, 18.112115)"><g><path d="M 3.375 -7.984375 L 4.671875 -7.984375 L 4.671875 -6.484375 L 3.375 -6.484375 L 3.375 -2 C 3.375 -1.789062 3.429688 -1.65625 3.546875 -1.59375 C 3.660156 -1.53125 3.835938 -1.5 4.078125 -1.5 C 4.316406 -1.5 4.515625 -1.507812 4.671875 -1.53125 L 4.671875 0.03125 C 4.367188 0.0820312 3.988281 0.109375 3.53125 0.109375 C 2.707031 0.109375 2.125 -0.015625 1.78125 -0.265625 C 1.4375 -0.523438 1.265625 -0.984375 1.265625 -1.640625 L 1.265625 -6.484375 L 0.1875 -6.484375 L 0.1875 -7.984375 L 1.265625 -7.984375 L 1.265625 -10.140625 L 3.375 -10.140625 Z M 3.375 -7.984375 "/></g></g></g><g fill="#000000" fill-opacity="1"><g transform="translate(105.201841, 18.112115)"><g><path d="M 5.390625 -0.125 C 5.003906 1 4.707031 1.75 4.5 2.125 C 4.300781 2.507812 4.054688 2.785156 3.765625 2.953125 C 3.484375 3.128906 3 3.21875 2.3125 3.21875 C 1.957031 3.21875 1.640625 3.203125 1.359375 3.171875 L 1.359375 1.5 C 1.515625 1.519531 1.707031 1.53125 1.9375 1.53125 C 2.238281 1.53125 2.484375 1.46875 2.671875 1.34375 C 2.867188 1.21875 3.035156 0.882812 3.171875 0.34375 L 0.203125 -7.984375 L 2.546875 -7.984375 L 4.25 -2.109375 L 4.296875 -2.109375 L 5.921875 -7.984375 L 8.140625 -7.984375 Z M 5.390625 -0.125 "/></g></g></g></g></g></g></svg>