<?xml version="1.0" encoding="UTF-8"?>
<svg id="Layer_1" xmlns="http://www.w3.org/2000/svg" version="1.1" viewBox="0 0 48 48">
  <!-- Generator: Adobe Illustrator 30.0.0, SVG Export Plug-In . SVG Version: 2.1.1 Build 123)  -->
  <defs>
    <style>
      .st0 {
        fill: #231f20;
      }
    </style>
  </defs>
  <line class="st0" x1="15.67" y1=".71" x2="15.65" y2=".74"/>
  <path class="st0" d="M34.59,45.63c-4.06-.12-8.99.16-11.74-2.83-1.8,1.41-6.65,3.32-11.59,2.75.42-1.16.85-2.31,1.27-3.47,2.78.34,5.6.48,8.27-1.9-2.43-4.54-2.78-11.2-.29-15.17,2.49,8.42.72,18.46,12.9,17.07.49,1.39,1.01,2.58,1.18,3.55Z"/>
  <path class="st0" d="M46.81,45.54L32,.9h-2.86l-6.75,21.09c.87,2.64,1.5,4.76,1.92,6.25.11.39.49,1.57,1.24,3.94.64,2,.97,3.01,1.2,2.96.1-.02.16-.23.29-1.5.15-1.49.23-2.23.23-2.93,0-.79-.04-2.11-.35-3.68-.15-.76-.3-1.3-.55-2.16-.31-1.09-.62-1.99-.85-2.61,1.71-5.31,3.42-10.62,5.14-15.94l9.21,28.07-8.4.03-1.28,3.63,10.97-.03,2.39,7.53h3.26Z"/>
  <polygon class="st0" points="15.7 .9 1.19 45.61 4.42 45.61 6.96 37.97 16.53 37.97 15.36 34.47 8.09 34.42 17.15 6.44 21.25 19.79 22.93 14.66 18.45 .9 15.7 .9"/>
  <path class="st0" d="M33.1,47.29"/>
</svg>